<svg width="180" height="25" viewBox="0 0 180 25" fill="none" xmlns="http://www.w3.org/2000/svg">
<path d="M50.6533 11.2048C53.3094 9.3538 55.8677 9.75259 57.666 12.1905C57.7638 12.0701 57.8616 11.9497 57.9519 11.8293C59.7728 9.60963 63.3168 9.39895 65.2656 11.3854C66.1158 12.2582 66.5221 13.3342 66.5297 14.5305C66.5597 17.2242 66.5598 19.9179 66.5598 22.6041C66.5598 23.1459 66.4243 23.2587 65.8826 23.2813H65.6493C64.8818 23.2813 64.7765 23.1835 64.7765 22.4235V14.8616C64.7765 13.0783 63.5049 11.7089 61.827 11.6713C60.1114 11.6412 58.584 13.0783 58.5614 14.824C58.5388 17.2844 58.5614 19.7374 58.5689 22.1978C58.5689 23.2211 58.1701 23.5146 57.1619 23.2587C56.8007 23.1685 56.7781 22.8976 56.7781 22.6041V17.2468C56.7781 16.4793 56.7781 15.7119 56.7706 14.9444C56.7631 13.0558 55.4915 11.6713 53.7609 11.6713C52.0303 11.6713 50.6007 13.1385 50.5931 14.9594C50.5781 17.45 50.6007 19.9405 50.5856 22.4235C50.5856 22.6794 50.4953 23.1384 50.3749 23.1609C49.946 23.2512 49.4871 23.2362 49.0507 23.1609C48.9453 23.1459 48.8475 22.7697 48.84 22.5515C48.8249 21.2046 48.8324 19.8578 48.8324 18.5109V11.423C48.8324 11.2048 48.855 10.9866 48.855 10.7684C48.8625 10.4749 49.0206 10.347 49.299 10.332C49.3892 10.3244 49.4871 10.3169 49.5774 10.3094C50.4652 10.2793 50.5405 10.332 50.6533 11.2048Z" fill="black"/>
<path d="M139.824 14.1619C140.735 13.0709 141.675 12.0476 142.819 11.2274C143.677 10.6105 144.61 10.1439 145.686 10.0311C147.16 9.88059 148.041 10.618 148.116 12.0852C148.176 13.1988 147.89 14.2522 147.574 15.3056C147.025 17.1416 146.468 18.9775 145.919 20.8134C145.844 21.0693 145.776 21.3251 145.753 21.5884C145.701 22.1528 146.047 22.4387 146.574 22.228C146.89 22.1001 147.153 21.8292 147.439 21.6185C147.529 21.5508 147.619 21.468 147.717 21.3778C147.777 21.4831 147.808 21.5132 147.808 21.5282C147.484 22.544 146.288 23.4168 145.242 23.4168C144.444 23.4168 143.887 22.9729 143.872 22.1829C143.865 21.5358 143.948 20.8736 144.113 20.2491C144.7 18.1122 145.377 16.0054 145.949 13.861C146.1 13.3042 146.069 12.6872 146.009 12.1003C145.957 11.5886 145.588 11.2651 145.069 11.2952C144.519 11.3253 143.917 11.393 143.451 11.6563C141.359 12.8377 139.779 14.493 139.057 16.8556C138.598 18.3605 138.139 19.8654 137.695 21.3778C137.537 21.9195 137.379 22.4838 137.936 22.9278C137.951 22.9428 137.823 23.2363 137.755 23.2363C136.634 23.2588 135.505 23.2513 134.241 23.2513C134.399 23.0557 134.467 22.9202 134.572 22.86C135.144 22.5365 135.46 22.0324 135.648 21.438C136.95 17.4651 138.191 13.4697 139.591 9.52695C139.997 8.38325 140.78 7.32232 141.547 6.35169C143.699 3.65798 146.393 1.75433 149.817 1.01694C151.02 0.753591 152.232 0.678347 153.458 0.866455C154.166 0.971796 154.346 1.40821 153.917 1.98758C153.353 2.75506 152.578 3.04851 151.652 2.89802C150.93 2.77763 150.215 2.60457 149.501 2.43151C147.785 2.01015 146.31 2.41647 145.084 3.68055C143.729 5.07255 142.826 6.75048 142.082 8.51117C141.322 10.3095 140.622 12.1304 139.892 13.9437C139.877 14.019 139.847 14.0867 139.824 14.1619Z" fill="black"/>
<path d="M170.23 23.191C170.366 20.7306 170.501 18.3303 170.637 15.7796C170.479 16.0053 170.388 16.1257 170.313 16.2611C168.966 18.4582 167.612 20.6553 166.273 22.86C166.115 23.1233 165.949 23.2362 165.641 23.2211C165.189 23.191 164.738 23.2136 164.249 23.2136C164.188 22.1903 164.128 21.2046 164.076 20.2264C163.94 17.5854 163.82 14.9444 163.684 12.3033C163.654 11.7465 163.526 11.2198 163.097 10.806C163.037 10.7458 162.984 10.6028 163.015 10.5351C163.045 10.4674 163.18 10.3997 163.27 10.3997C164.519 10.3922 165.776 10.3922 167.191 10.3922C167.025 10.5878 166.957 10.7383 166.844 10.7834C165.942 11.1446 165.626 11.8293 165.671 12.7548C165.799 15.3657 165.911 17.9767 166.024 20.5876C166.047 21.0466 166.024 21.5131 166.024 21.9721L166.167 22.0022C166.363 21.6786 166.566 21.3551 166.762 21.0316C168.003 19.0075 169.252 16.9835 170.471 14.9444C170.614 14.7036 170.689 14.4026 170.727 14.1167C170.795 13.5298 170.802 12.9279 170.832 12.341C170.862 11.7465 170.682 11.2349 170.223 10.8286C170.148 10.7608 170.095 10.6104 170.102 10.505C170.11 10.4524 170.261 10.3696 170.351 10.3696C171.63 10.3621 172.909 10.3621 174.188 10.3621L174.256 10.4749C174.151 10.5727 174.068 10.7157 173.94 10.7684C173.218 11.0618 172.879 11.6337 172.819 12.3711C172.638 14.6434 172.495 16.9233 172.33 19.2031C172.262 20.1963 172.187 21.1896 172.111 22.2279C174.256 20.708 177.785 13.9286 178.289 10.3997H180.005C179.658 12.1303 178.853 13.6803 177.973 15.2002C176.34 17.9917 174.369 20.5425 172.217 22.9503C172.096 23.0782 171.886 23.176 171.705 23.1835C171.246 23.2136 170.765 23.191 170.23 23.191Z" fill="black"/>
<path d="M72.3533 20.9338C74.1216 22.386 76.7475 22.2431 78.5985 20.5877C78.9446 20.2792 79.208 19.8729 79.5466 19.5494C79.6971 19.4064 79.9529 19.2785 80.126 19.3086C80.2464 19.3312 80.3743 19.6246 80.4119 19.8127C80.6301 20.9338 80.1561 21.6938 79.2456 22.3409C77.0711 23.8909 73.9861 24.0339 71.7138 22.6193C69.306 21.122 67.9516 18.3304 68.4031 15.8023C68.8997 13.0107 71.0366 10.7384 73.7529 10.2117C76.1907 9.74518 78.3502 10.317 80.126 12.1229C80.6376 12.642 80.6451 12.7624 80.141 13.2666C77.5526 15.8173 74.9568 18.368 72.3533 20.9338ZM70.9914 19.5644C73.3766 17.2921 75.7543 15.0348 78.1395 12.77C76.7701 11.536 73.8733 11.0845 71.7664 13.0785C69.8402 14.8843 69.5468 17.8489 70.9914 19.5644Z" fill="black"/>
<path d="M108.9 23.5823C104.897 23.6801 102.015 20.1136 102.022 16.8254C102.03 13.0783 105.115 10.0159 108.9 10.0235C112.639 10.031 115.702 13.0708 115.724 16.7803C115.732 20.4973 112.647 23.5748 108.9 23.5823ZM108.922 21.9119C111.616 21.9119 113.964 19.5492 113.956 16.8254C113.949 14.1242 111.571 11.6788 108.937 11.6713C106.259 11.6638 103.873 14.0339 103.791 16.6373C103.7 19.5643 106.198 21.957 108.922 21.9119Z" fill="black"/>
<path d="M83.9264 11.6413C84.8745 10.776 85.8602 10.332 86.9813 10.1213C90.5704 9.43663 93.8435 12.04 93.9037 15.6818C93.9413 17.9843 93.9112 20.2792 93.9112 22.5816C93.9112 23.1535 93.7833 23.2663 93.219 23.2814H92.8879C92.2483 23.2663 92.1505 23.1685 92.1505 22.544C92.1505 20.2566 92.1656 17.9767 92.143 15.6893C92.1204 13.3418 90.0964 11.4908 87.8015 11.6789C85.7022 11.8519 83.9415 13.718 83.9264 15.8173C83.9114 18.0219 83.934 20.2265 83.9189 22.4311C83.9189 22.687 83.8136 23.1384 83.6932 23.1685C83.2643 23.2513 82.8053 23.2287 82.3689 23.161C82.2711 23.1459 82.1808 22.7622 82.1808 22.544C82.1657 20.2867 82.1733 18.0369 82.1733 15.7796C82.1733 14.1995 82.1733 12.6194 82.1808 11.0393C82.1808 10.4223 82.2786 10.332 82.8806 10.3094C82.9934 10.3019 83.0988 10.3019 83.2116 10.3094C83.8211 10.3245 83.9189 10.4223 83.934 11.0318C83.934 11.1898 83.9264 11.3403 83.9264 11.6413Z" fill="black"/>
<path d="M157.371 9.97834C159.922 9.99339 161.57 11.566 161.585 14.1318C161.615 17.9842 158.718 22.1677 154.964 23.176C153.895 23.4619 152.834 23.4996 151.766 23.1911C150.065 22.702 149.05 21.2197 149.042 19.2032C149.027 15.7119 151.57 11.8369 154.813 10.5351C155.611 10.2116 156.491 10.0837 157.334 9.86548C157.349 9.9031 157.364 9.94072 157.371 9.97834ZM150.983 19.8728C151.021 20.1888 151.044 20.5801 151.119 20.9639C151.39 22.2881 152.353 23.0029 153.7 22.875C154.633 22.7847 155.378 22.3032 156.032 21.6787C157.469 20.3092 158.38 18.6087 159.012 16.7578C159.463 15.4335 159.794 14.0941 159.569 12.6721C159.358 11.3402 158.493 10.4975 157.274 10.49C156.506 10.4825 155.837 10.7759 155.235 11.2123C154.249 11.9196 153.527 12.8602 152.925 13.891C151.849 15.7194 151.111 17.6532 150.983 19.8728Z" fill="black"/>
<path d="M97.7103 10.3545C98.7261 10.3545 99.6892 10.3394 100.652 10.3695C100.901 10.3771 101.314 10.505 101.345 10.6479C101.427 11.0242 101.367 11.438 101.292 11.8217C101.277 11.9045 100.968 11.9647 100.795 11.9722C99.9526 11.9948 99.1023 11.9873 98.2596 12.0023C98.0941 12.0023 97.921 12.0174 97.7856 12.0249C97.7479 12.0851 97.7329 12.0926 97.7329 12.1077C97.7329 14.3875 97.6577 16.6749 97.7705 18.9473C97.8533 20.5199 99.0045 21.5356 100.577 21.7463C101.397 21.8592 101.698 22.3182 101.397 23.0932C101.337 23.2437 101.081 23.3941 100.908 23.4017C98.4402 23.5522 96.055 21.4454 95.9948 18.9698C95.9271 16.0956 95.9572 13.2137 95.9496 10.3394C95.9421 8.51104 95.9496 6.68263 95.9496 4.84669C95.9496 4.10931 96.0098 4.05664 96.7623 4.05664H96.9052C97.62 4.05664 97.6953 4.12436 97.6953 4.82412V9.7977C97.7103 9.97076 97.7103 10.1363 97.7103 10.3545Z" fill="black"/>
<path d="M136.672 11.2876C136.093 12.0927 135.611 12.7623 135.137 13.4245L135.002 13.3492C134.949 12.9429 134.919 12.5291 134.829 12.1228C134.573 10.9941 133.828 10.4599 132.677 10.5502C131.3 10.6555 130.051 11.6487 129.735 12.8752C129.546 13.6201 129.682 14.2898 130.306 14.7713C131.134 15.4109 132.007 15.9903 132.835 16.6374C134.385 17.8488 134.633 19.4138 133.534 21.0466C132.541 22.5289 131.044 23.191 129.336 23.3942C128.004 23.5522 126.71 23.3942 125.521 22.702C124.468 22.0925 124.445 21.9646 125.137 21.009C125.348 20.7155 125.551 20.4221 125.777 20.1437C125.86 20.0383 125.995 19.9857 126.138 19.8803C126.191 20.2867 126.213 20.6102 126.288 20.9262C126.597 22.258 127.537 23.0029 128.892 22.9277C130.209 22.8524 131.217 22.2204 131.834 21.0541C132.383 20.0158 132.15 18.9548 131.224 18.2476C130.532 17.7133 129.795 17.2393 129.087 16.7276C128.433 16.2536 127.861 15.7043 127.673 14.8691C127.379 13.5223 128.019 12.0325 129.388 11.1371C131.157 9.97833 133.083 9.73003 135.092 10.3846C135.634 10.5652 136.1 10.9565 136.672 11.2876Z" fill="black"/>
<path d="M119.207 11.1748C120.058 10.5127 121.028 10.0913 122.149 10.0387C123.173 9.98599 124.098 10.2569 124.933 10.8513C125.31 11.1146 125.513 12.3261 125.219 12.6722C124.978 12.9581 124.7 12.8904 124.444 12.6496C123.97 12.2057 123.443 11.8746 122.781 11.7467C120.975 11.4006 119.14 12.8829 119.132 14.7263C119.117 17.2244 119.117 19.73 119.117 22.2356C119.117 23.2288 118.673 23.5599 117.702 23.2363C117.552 23.1836 117.409 22.9353 117.364 22.7623C117.304 22.5065 117.349 22.2356 117.349 21.9647C117.349 18.3681 117.341 14.7715 117.364 11.1748C117.364 10.9115 117.484 10.4525 117.627 10.4149C118.033 10.3171 118.5 10.3321 118.899 10.445C119.049 10.4826 119.102 10.904 119.207 11.1748Z" fill="black"/>
<path d="M8.8331 24.4928H8.25373C6.80153 24.4852 5.34181 24.4777 3.88962 24.4702C3.21995 24.4702 2.55781 24.41 1.9333 24.1542C1.36145 23.9209 0.834745 23.6124 0.466053 23.1008C-0.00797944 22.4311 -0.0832226 21.6862 0.0747881 20.9037C0.16508 20.4522 0.368237 20.0384 0.563869 19.6245C1.23353 18.24 1.9032 16.8556 2.58039 15.4711C3.31777 13.9662 4.05515 12.4689 4.79254 10.9715C4.92045 10.7007 5.03332 10.4298 5.02579 10.1213C5.01827 9.55697 4.6872 9.16571 4.1304 9.06789C3.6037 8.9776 3.11461 9.10551 2.63306 9.32372C2.58039 9.34629 2.52772 9.37639 2.46 9.37639C2.72335 9.09799 2.9867 8.81959 3.25758 8.54871C3.82942 7.97687 4.4389 7.44264 5.16875 7.07395C6.48551 6.40428 7.85494 6.29142 9.23189 6.84822C10.7067 7.43511 11.5042 8.59386 11.73 10.1439C11.8127 10.7157 11.6923 11.28 11.4741 11.8143C11.2033 12.4839 10.8948 13.1536 10.5863 13.8082C9.59306 15.9677 8.5848 18.1197 7.59159 20.2791C7.40348 20.693 7.1928 21.0993 7.12508 21.5507C6.96707 22.559 7.26804 23.4093 8.04305 24.0639C8.23868 24.2294 8.51708 24.3197 8.75033 24.4401C8.78043 24.4551 8.81053 24.4627 8.84062 24.4702L8.8331 24.4928Z" fill="#E36D5D"/>
<path d="M19.1717 24.4928H18.5923C17.1326 24.4852 15.6804 24.4777 14.2207 24.4702C13.551 24.4702 12.8889 24.41 12.2644 24.1542C11.6925 23.9209 11.1658 23.6124 10.7971 23.1008C10.3231 22.4311 10.2478 21.6862 10.4058 20.9037C10.4961 20.4522 10.6993 20.0384 10.8949 19.6245C11.5646 18.24 12.2343 16.8556 12.9114 15.4711C13.6488 13.9662 14.3862 12.4689 15.1236 10.9715C15.2515 10.7007 15.3644 10.4298 15.3568 10.1213C15.3493 9.55697 15.0183 9.16571 14.4615 9.06789C13.9348 8.9776 13.4381 9.10551 12.9641 9.32372C12.9114 9.34629 12.8588 9.37639 12.7911 9.37639C13.0544 9.09799 13.3178 8.81959 13.5886 8.54871C14.1605 7.97687 14.77 7.44264 15.4998 7.07395C16.8166 6.40428 18.186 6.29142 19.5629 6.84822C21.0377 7.43511 21.8353 8.59386 22.061 10.1439C22.1438 10.7157 22.0234 11.28 21.8052 11.8143C21.5343 12.4839 21.2258 13.1536 20.9173 13.8082C19.9241 15.9677 18.9159 18.1197 17.9226 20.2791C17.7345 20.693 17.5239 21.0993 17.4561 21.5507C17.2981 22.559 17.5991 23.4093 18.3741 24.0639C18.5697 24.2294 18.8481 24.3197 19.0814 24.4401C19.1115 24.4551 19.1416 24.4627 19.1642 24.4702L19.1717 24.4928Z" fill="#E36D5D"/>
<path d="M29.5025 24.4928H28.9232C27.4634 24.4852 26.0112 24.4777 24.5591 24.4702C23.8894 24.4702 23.2272 24.41 22.6027 24.1542C22.0309 23.9209 21.5042 23.6124 21.1355 23.1008C20.6615 22.4311 20.5862 21.6862 20.7442 20.9037C20.8345 20.4522 21.0377 20.0384 21.2333 19.6245C21.903 18.24 22.5726 16.8556 23.2498 15.4711C23.9872 13.9662 24.7246 12.4689 25.462 10.9715C25.5899 10.7007 25.7027 10.4298 25.6952 10.1213C25.6877 9.55697 25.3566 9.16571 24.7998 9.06789C24.2731 8.9776 23.784 9.10551 23.3025 9.32372C23.2498 9.34629 23.1972 9.37639 23.1294 9.37639C23.3928 9.09799 23.6561 8.81959 23.927 8.54871C24.4989 7.97687 25.1083 7.44264 25.8382 7.07395C27.1549 6.40428 28.5244 6.29142 29.9013 6.84822C31.3761 7.43511 32.1737 8.59386 32.3994 10.1439C32.4822 10.7157 32.3618 11.28 32.1436 11.8143C31.8727 12.4839 31.5642 13.1536 31.2557 13.8082C30.2625 15.9677 29.2542 18.1197 28.261 20.2791C28.0729 20.693 27.8622 21.0993 27.7945 21.5507C27.6365 22.559 27.9375 23.4093 28.7125 24.0639C28.9081 24.2294 29.1865 24.3197 29.4273 24.4401C29.4574 24.4551 29.4875 24.4627 29.5101 24.4702L29.5025 24.4928Z" fill="#E36D5D"/>
<path d="M35.7696 23.1684C35.2354 23.8005 34.5732 24.2068 33.7756 24.3949C33.121 24.5529 32.4739 24.5153 31.8494 24.2369C31.0594 23.8833 30.6455 23.2512 30.5628 22.4085C30.48 21.5658 30.8111 20.881 31.5033 20.392C32.2482 19.8653 33.3618 19.9029 34.0691 20.4597C34.6485 20.9187 34.8291 21.5357 34.7011 22.258C34.6786 22.401 34.656 22.5364 34.656 22.6794C34.6485 23.1383 35.0322 23.4167 35.4761 23.2738C35.574 23.2437 35.6718 23.2061 35.7696 23.1684Z" fill="#E36D5D"/>
</svg>
